<?xml version="1.0" encoding="UTF-8"?>
<svg xmlns="http://www.w3.org/2000/svg" width="132" height="44" viewBox="0 0 132 44" fill="none">
  <g clip-path="url(#clip0_60_1616)">
    <g filter="url(#filter0_dd_60_1616)">
      <path d="M56.8757 3.0042L57.5206 19.5438L55.5342 18.1795L51.2327 21.5049L50.7876 10.0734L-5.50084 61.3056C-6.11155 61.8619 -6.87398 62.1351 -7.6402 62.1351C-8.50126 62.1351 -9.36358 61.7848 -9.99198 61.0957C-11.1717 59.7959 -11.0794 57.7868 -9.77957 56.6046L51.5577 0.776328C52.4731 -0.0569112 53.7855 -0.281975 54.9273 0.194703C56.069 0.671382 56.8277 1.76888 56.8757 3.00546V3.0042Z" fill="url(#paint0_linear_60_1616)"></path>
    </g>
    <path d="M186.075 -96.2017L146.173 -37.9648C145.534 -37.0304 144.44 -36.5095 143.318 -36.5917L118.834 -38.3871L66.0136 25.3626L60.7461 21.754L114.985 -43.7065C115.64 -44.498 116.641 -44.9241 117.664 -44.8507L141.961 -43.0679L180.829 -99.7952C181.824 -101.244 183.801 -101.613 185.25 -100.622C186.697 -99.6308 187.066 -97.6533 186.073 -96.203L186.075 -96.2017Z" fill="url(#paint1_linear_60_1616)"></path>
    <path d="M72.5405 28.1303L55.8061 16.5485L39.9379 28.4237C38.8316 29.2519 39.417 31.0132 40.8003 31.0132H43.9878V43.6837H53.3115V41.2283H46.4433V28.5577H43.8576L55.863 19.5729L68.4653 28.2947H64.7012V41.246H57.0263V37.9712C59.9015 37.4211 62.075 34.9075 62.075 31.8881C62.075 28.4705 59.2845 25.6964 55.8441 25.6964C52.4037 25.6964 49.6119 28.4705 49.6119 31.8881C49.6119 34.8759 51.7398 37.3706 54.5721 37.9535V43.7002H67.1567V30.7489H71.7224C73.1335 30.7489 73.6999 28.9307 72.5417 28.1291L72.5405 28.1303ZM54.0853 36.1555L54.9375 31.4974C54.3015 31.151 53.8716 30.4948 53.8716 29.7437C53.8716 28.6298 54.8161 27.7257 55.9819 27.7257C57.1477 27.7257 58.0922 28.6311 58.0922 29.7437C58.0922 30.4695 57.6952 31.1004 57.0971 31.457L57.8785 36.1568H54.0866L54.0853 36.1555Z" fill="url(#paint2_linear_60_1616)"></path>
    <path d="M83.9895 27.043L82.4811 29.6097H75.8303V19.626H78.1606V27.043H83.9907H83.9895Z" fill="#231F20"></path>
    <path d="M89.74 19.4629C91.5709 19.4629 92.9453 19.8763 93.8645 20.702C94.7837 21.5277 95.2427 22.8313 95.2427 24.6115C95.2427 26.3918 94.785 27.7106 93.8695 28.5362C92.9541 29.3619 91.5772 29.7753 89.7387 29.7753C87.9003 29.7753 86.5145 29.3631 85.6029 28.5362C84.6913 27.7106 84.2361 26.4019 84.2361 24.6115C84.2361 22.8211 84.6938 21.5277 85.6092 20.702C86.5246 19.8763 87.9016 19.4629 89.74 19.4629ZM89.74 27.1783C90.3254 27.1783 90.8198 27.1466 91.2257 27.0809C91.6303 27.0164 91.959 26.89 92.2106 26.7003C92.4623 26.5119 92.6443 26.2502 92.7569 25.9164C92.8694 25.5826 92.9263 25.1476 92.9263 24.6103C92.9263 24.0729 92.8707 23.6379 92.7569 23.3041C92.6443 22.9703 92.4623 22.7124 92.2106 22.5278C91.959 22.3432 91.6316 22.2193 91.2257 22.1548C90.8211 22.0903 90.3254 22.0574 89.74 22.0574C89.1546 22.0574 88.6602 22.0903 88.2543 22.1548C87.8497 22.2193 87.521 22.3445 87.2694 22.5278C87.0178 22.7124 86.8357 22.9703 86.7232 23.3041C86.6106 23.6379 86.5537 24.0729 86.5537 24.6103C86.5537 25.1476 86.6094 25.5826 86.7232 25.9164C86.8357 26.2502 87.0178 26.5106 87.2694 26.7003C87.521 26.89 87.8485 27.0164 88.2543 27.0809C88.659 27.1454 89.1546 27.1783 89.74 27.1783Z" fill="#231F20"></path>
    <path d="M106.003 27.043L104.506 29.6097H100.724C100.071 29.6097 99.4671 29.4807 98.912 29.2215C98.3569 28.9623 97.8777 28.607 97.4769 28.1544C97.0748 27.7017 96.76 27.1644 96.5311 26.5423C96.3023 25.9202 96.1885 25.2463 96.1885 24.5205C96.1885 23.7947 96.3023 23.1309 96.5311 22.5278C96.76 21.9259 97.0748 21.4088 97.4769 20.9764C97.8777 20.544 98.3569 20.2102 98.912 19.9762C99.4671 19.7423 100.071 19.626 100.724 19.626H106.001L104.504 22.2231H100.723C100.408 22.2231 100.114 22.2825 99.8451 22.4026C99.5758 22.5227 99.3419 22.6884 99.1472 22.9021C98.9524 23.1158 98.7982 23.3724 98.6857 23.6708C98.5731 23.9692 98.5175 24.298 98.5175 24.6558C98.5175 25.0136 98.5719 25.3398 98.6806 25.6332C98.7893 25.9265 98.9436 26.1781 99.1421 26.3868C99.3406 26.5954 99.5758 26.7572 99.8451 26.8723C100.116 26.9873 100.408 27.0442 100.723 27.0442H106L106.003 27.043Z" fill="#231F20"></path>
    <path d="M116.311 29.6097H112.789L110.515 26.9835C110.125 26.5359 109.828 26.1882 109.62 25.9392C109.414 25.6901 109.247 25.4814 109.119 25.312C109.127 25.5409 109.135 25.7773 109.142 26.0213C109.15 26.2654 109.154 26.5069 109.154 26.7446V29.6097H106.813V19.626H109.154V21.9386C109.154 22.2471 109.15 22.5506 109.142 22.849C109.135 23.1474 109.123 23.4255 109.108 23.6847C109.259 23.5052 109.441 23.2839 109.654 23.0209C109.868 22.7579 110.147 22.4368 110.493 22.0587L112.665 19.626H116.041L113.159 22.4911C112.911 22.7402 112.693 22.959 112.501 23.1474C112.31 23.337 112.139 23.5001 111.988 23.6392C111.838 23.7783 111.701 23.9035 111.577 24.0122C111.454 24.1222 111.332 24.2259 111.212 24.3258C111.43 24.5243 111.693 24.7734 112 25.0718C112.307 25.3702 112.705 25.7836 113.193 26.3109L116.31 29.6084L116.311 29.6097Z" fill="#231F20"></path>
    <path d="M121.24 29.6097H118.911V19.626H121.24V29.6097Z" fill="#231F20"></path>
    <path d="M132.043 19.6273L130.535 22.2243H127.845V29.611H125.515V22.2243H121.981L123.489 19.6273H132.042H132.043Z" fill="#231F20"></path>
    <path d="M91.5543 43.1135H75.7341V43.6142H91.5543V43.1135Z" fill="url(#paint3_linear_60_1616)"></path>
    <path d="M131.344 43.1135H89.7615V43.6142H131.344V43.1135Z" fill="url(#paint4_linear_60_1616)"></path>
    <path d="M82.9487 38.1052L81.6312 40.3482H75.8201V31.6251H77.8558V38.1052H82.95H82.9487Z" fill="#231F20"></path>
    <path d="M91.2672 38.1052L89.9598 40.3482H83.6277V31.6251H91.2482L89.9307 33.8935H85.6722V34.9366H90.8841L89.7132 36.9179H85.6722V38.1039H91.2672V38.1052Z" fill="#231F20"></path>
    <path d="M98.6323 40.4911C98.5008 40.4911 98.3718 40.4633 98.2441 40.4064C98.1164 40.3495 97.9735 40.2218 97.8168 40.022L93.7846 35.2236V40.3482H91.936V33.1108C91.936 32.8238 91.9664 32.576 92.0296 32.3673C92.0928 32.1587 92.1737 31.9893 92.2749 31.859C92.376 31.7288 92.4949 31.6327 92.6289 31.572C92.7629 31.5113 92.902 31.481 93.0474 31.481C93.1713 31.481 93.2978 31.5088 93.4255 31.5657C93.5532 31.6226 93.6999 31.7503 93.863 31.9501L97.8951 36.7485V31.6239H99.7538V38.8474C99.7538 39.1344 99.7222 39.3822 99.6602 39.5908C99.5983 39.7995 99.5161 39.9714 99.4149 40.1055C99.3138 40.2407 99.1937 40.3381 99.0559 40.3988C98.918 40.4595 98.7777 40.4898 98.6335 40.4898L98.6323 40.4911Z" fill="#231F20"></path>
    <path d="M109.322 35.9013C109.322 36.536 109.222 37.1253 109.022 37.6677C108.822 38.2114 108.547 38.6805 108.196 39.0762C107.846 39.472 107.428 39.783 106.942 40.0081C106.457 40.2344 105.929 40.3469 105.359 40.3469H100.954V34.91H103V38.1052H105.36C105.642 38.1052 105.903 38.0559 106.142 37.9547C106.381 37.8548 106.585 37.7132 106.756 37.5311C106.927 37.3491 107.061 37.129 107.16 36.8724C107.258 36.6157 107.307 36.3312 107.307 36.0189C107.307 35.7066 107.258 35.4322 107.16 35.1718C107.061 34.9113 106.923 34.6875 106.746 34.5004C106.569 34.3132 106.363 34.1653 106.127 34.0566C105.89 33.9478 105.635 33.8935 105.359 33.8935H100.954L102.251 31.6251H105.359C105.936 31.6251 106.467 31.7301 106.952 31.9374C107.438 32.1461 107.855 32.4394 108.206 32.8174C108.557 33.1955 108.831 33.6482 109.027 34.1729C109.223 34.6989 109.322 35.2742 109.322 35.9001V35.9013Z" fill="#231F20"></path>
    <path d="M112.419 40.3482H110.384V31.6251H112.419V40.3482Z" fill="#231F20"></path>
    <path d="M120.355 40.4911C120.223 40.4911 120.094 40.4633 119.967 40.4064C119.839 40.3495 119.696 40.2218 119.539 40.022L115.507 35.2236V40.3482H113.658V33.1108C113.658 32.8238 113.689 32.576 113.752 32.3673C113.814 32.1587 113.896 31.9893 113.997 31.859C114.098 31.7288 114.217 31.6327 114.351 31.572C114.485 31.5113 114.624 31.481 114.77 31.481C114.894 31.481 115.02 31.5088 115.148 31.5657C115.276 31.6226 115.422 31.7503 115.585 31.9501L119.618 36.7485V31.6239H121.476V38.8474C121.476 39.1344 121.445 39.3822 121.383 39.5908C121.321 39.7995 121.239 39.9714 121.137 40.1055C121.036 40.2407 120.916 40.3381 120.778 40.3988C120.64 40.4595 120.5 40.4898 120.356 40.4898L120.355 40.4911Z" fill="#231F20"></path>
    <path d="M126.736 34.8974H130.945V40.3482H126.431C125.861 40.3482 125.333 40.2357 124.848 40.0094C124.363 39.783 123.946 39.4733 123.594 39.0775C123.244 38.6817 122.968 38.2127 122.768 37.669C122.569 37.1253 122.469 36.5373 122.469 35.9026C122.469 35.2679 122.569 34.6875 122.768 34.1615C122.968 33.6355 123.244 33.1841 123.594 32.8061C123.944 32.428 124.363 32.1372 124.848 31.9324C125.334 31.7288 125.861 31.6264 126.431 31.6264H131.141L129.824 33.8947H126.431C126.156 33.8947 125.9 33.9466 125.664 34.0515C125.427 34.1565 125.223 34.3031 125.049 34.4953C124.875 34.6862 124.74 34.91 124.641 35.1667C124.542 35.4234 124.493 35.7079 124.493 36.0202C124.493 36.3325 124.54 36.6182 124.636 36.8737C124.731 37.1303 124.865 37.3491 125.039 37.5324C125.212 37.7145 125.417 37.8561 125.654 37.956C125.89 38.0559 126.148 38.1064 126.43 38.1064H128.918V36.842H125.516L126.735 34.8987L126.736 34.8974Z" fill="#231F20"></path>
  </g>
  <defs>
    <filter id="filter0_dd_60_1616" x="-18.8191" y="-6.05194" width="84.3396" height="78.187" color-interpolation-filters="sRGB">
      <feFlood flood-opacity="0" result="BackgroundImageFix"></feFlood>
      <feColorMatrix in="SourceAlpha" type="matrix" values="0 0 0 0 0 0 0 0 0 0 0 0 0 0 0 0 0 0 127 0" result="hardAlpha"></feColorMatrix>
      <feOffset dy="2"></feOffset>
      <feGaussianBlur stdDeviation="2"></feGaussianBlur>
      <feColorMatrix type="matrix" values="0 0 0 0 0.12549 0 0 0 0 0.145098 0 0 0 0 0.196078 0 0 0 0.03 0"></feColorMatrix>
      <feBlend mode="normal" in2="BackgroundImageFix" result="effect1_dropShadow_60_1616"></feBlend>
      <feColorMatrix in="SourceAlpha" type="matrix" values="0 0 0 0 0 0 0 0 0 0 0 0 0 0 0 0 0 0 127 0" result="hardAlpha"></feColorMatrix>
      <feOffset dy="2"></feOffset>
      <feGaussianBlur stdDeviation="4"></feGaussianBlur>
      <feComposite in2="hardAlpha" operator="out"></feComposite>
      <feColorMatrix type="matrix" values="0 0 0 0 0.12549 0 0 0 0 0.145098 0 0 0 0 0.196078 0 0 0 0.08 0"></feColorMatrix>
      <feBlend mode="normal" in2="effect1_dropShadow_60_1616" result="effect2_dropShadow_60_1616"></feBlend>
      <feBlend mode="normal" in="SourceGraphic" in2="effect2_dropShadow_60_1616" result="shape"></feBlend>
    </filter>
    <linearGradient id="paint0_linear_60_1616" x1="20.8821" y1="-10.4313" x2="24.2264" y2="54.1605" gradientUnits="userSpaceOnUse">
      <stop stop-color="#FBC926"></stop>
      <stop offset="0.25" stop-color="#FFFBCC"></stop>
      <stop offset="0.3" stop-color="#F8EFBA"></stop>
      <stop offset="0.41" stop-color="#E7D18D"></stop>
      <stop offset="0.55" stop-color="#CCA246"></stop>
      <stop offset="0.6" stop-color="#C3922E"></stop>
      <stop offset="0.87" stop-color="#EED688"></stop>
      <stop offset="1" stop-color="#FFFBCC"></stop>
    </linearGradient>
    <linearGradient id="paint1_linear_60_1616" x1="124.846" y1="-15.8138" x2="128.19" y2="48.778" gradientUnits="userSpaceOnUse">
      <stop stop-color="#FBC926"></stop>
      <stop offset="0.25" stop-color="#FFFBCC"></stop>
      <stop offset="0.3" stop-color="#F8EFBA"></stop>
      <stop offset="0.41" stop-color="#E7D18D"></stop>
      <stop offset="0.55" stop-color="#CCA246"></stop>
      <stop offset="0.6" stop-color="#C3922E"></stop>
      <stop offset="0.87" stop-color="#EED688"></stop>
      <stop offset="1" stop-color="#FFFBCC"></stop>
    </linearGradient>
    <linearGradient id="paint2_linear_60_1616" x1="39.3589" y1="30.1243" x2="73.1625" y2="30.1243" gradientUnits="userSpaceOnUse">
      <stop stop-color="#FBC926"></stop>
      <stop offset="0.25" stop-color="#FFFBCC"></stop>
      <stop offset="0.3" stop-color="#F8EFBA"></stop>
      <stop offset="0.41" stop-color="#E7D18D"></stop>
      <stop offset="0.55" stop-color="#CCA246"></stop>
      <stop offset="0.6" stop-color="#C3922E"></stop>
      <stop offset="0.87" stop-color="#EED688"></stop>
      <stop offset="1" stop-color="#FFFBCC"></stop>
    </linearGradient>
    <linearGradient id="paint3_linear_60_1616" x1="83.6455" y1="40.3735" x2="83.6455" y2="44.7572" gradientUnits="userSpaceOnUse">
      <stop stop-color="#FBC926"></stop>
      <stop offset="0.25" stop-color="#FFFBCC"></stop>
      <stop offset="0.3" stop-color="#F8EFBA"></stop>
      <stop offset="0.41" stop-color="#E7D18D"></stop>
      <stop offset="0.55" stop-color="#CCA246"></stop>
      <stop offset="0.6" stop-color="#C3922E"></stop>
      <stop offset="0.87" stop-color="#EED688"></stop>
      <stop offset="1" stop-color="#FFFBCC"></stop>
    </linearGradient>
    <linearGradient id="paint4_linear_60_1616" x1="110.553" y1="40.3735" x2="110.553" y2="44.7572" gradientUnits="userSpaceOnUse">
      <stop stop-color="#FBC926"></stop>
      <stop offset="0.25" stop-color="#FFFBCC"></stop>
      <stop offset="0.3" stop-color="#F8EFBA"></stop>
      <stop offset="0.41" stop-color="#E7D18D"></stop>
      <stop offset="0.55" stop-color="#CCA246"></stop>
      <stop offset="0.6" stop-color="#C3922E"></stop>
      <stop offset="0.87" stop-color="#EED688"></stop>
      <stop offset="1" stop-color="#FFFBCC"></stop>
    </linearGradient>
    <clipPath id="clip0_60_1616">
      <rect width="132" height="43.7442" fill="white"></rect>
    </clipPath>
  </defs>
</svg>
